<svg width="57" height="300" viewBox="0 0 57 300" fill="none" xmlns="http://www.w3.org/2000/svg">
<path d="M28.5 121.429C34.1368 121.429 39.647 123.104 44.3338 126.244C49.0206 129.383 52.6735 133.845 54.8306 139.066C56.9877 144.287 57.5521 150.032 56.4524 155.574C55.3527 161.116 52.6383 166.207 48.6525 170.203C44.6667 174.199 39.5885 176.92 34.0601 178.022C28.5316 179.125 22.8012 178.559 17.5935 176.397C12.3858 174.234 7.93473 170.572 4.80311 165.873C1.67149 161.175 -6.3097e-06 155.651 -6.55671e-06 150C-6.88794e-06 142.422 3.00267 135.155 8.34745 129.797C13.6922 124.439 20.9413 121.429 28.5 121.429ZM-1.2489e-06 271.429C-1.00189e-06 277.079 1.6715 282.603 4.80312 287.302C7.93474 292.001 12.3858 295.663 17.5935 297.825C22.8012 299.988 28.5316 300.553 34.0601 299.451C39.5885 298.349 44.6667 295.627 48.6525 291.632C52.6383 287.636 55.3527 282.545 56.4524 277.003C57.5521 271.46 56.9877 265.715 54.8306 260.495C52.6735 255.274 49.0206 250.812 44.3338 247.672C39.647 244.533 34.1368 242.857 28.5 242.857C20.9413 242.857 13.6922 245.867 8.34746 251.226C3.00267 256.584 -1.58013e-06 263.851 -1.2489e-06 271.429ZM-1.18645e-05 28.5714C-1.16175e-05 34.2223 1.67149 39.7463 4.80311 44.4449C7.93473 49.1434 12.3858 52.8055 17.5935 54.968C22.8012 57.1305 28.5316 57.6963 34.0601 56.5939C39.5885 55.4914 44.6667 52.7702 48.6525 48.7745C52.6383 44.7787 55.3527 39.6877 56.4524 34.1454C57.552 28.6031 56.9877 22.8583 54.8306 17.6376C52.6735 12.4169 49.0205 7.95462 44.3337 4.81515C39.6469 1.67568 34.1368 -5.85182e-06 28.5 -5.60543e-06C20.9413 -5.27503e-06 13.6922 3.0102 8.34745 8.36838C3.00266 13.7266 -1.21957e-05 20.9938 -1.18645e-05 28.5714Z" fill="#DFFF00"/>
</svg>
