<?xml version="1.0" encoding="UTF-8"?>
<svg xmlns="http://www.w3.org/2000/svg" version="1.1" xmlns:xlink="http://www.w3.org/1999/xlink" viewBox="0 0 1920 670">
  <!-- Generator: Adobe Illustrator 29.2.1, SVG Export Plug-In . SVG Version: 2.1.0 Build 116)  -->
  <defs>
    <style>
      .st0 {
        fill: url(#Gradiente_sem_nome_112);
      }

      .st1 {
        fill: url(#Gradiente_sem_nome_161);
      }

      .st2 {
        fill: url(#Gradiente_sem_nome_11);
      }

      .st3 {
        fill: url(#Gradiente_sem_nome_162);
      }

      .st4 {
        fill: #b0c435;
      }

      .st5 {
        isolation: isolate;
      }

      .st6 {
        fill: #aabf2e;
      }

      .st7 {
        fill: #4f4a42;
      }

      .st8 {
        mix-blend-mode: multiply;
      }

      .st9 {
        display: none;
      }

      .st10 {
        fill: url(#Gradiente_sem_nome_16);
      }

      .st11 {
        fill: url(#Gradiente_sem_nome_163);
      }

      .st12 {
        fill: url(#Gradiente_sem_nome_111);
      }

      .st13 {
        fill: url(#Gradiente_sem_nome_113);
      }
    </style>
    <linearGradient id="Gradiente_sem_nome_16" data-name="Gradiente sem nome 16" x1="108.6" y1="171.6" x2="277.6" y2="419.3" gradientUnits="userSpaceOnUse">
      <stop offset="0" stop-color="#f9f3f4"/>
      <stop offset=".3" stop-color="#f3eeef"/>
      <stop offset=".6" stop-color="#e2e0e3"/>
      <stop offset=".7" stop-color="#dedce0"/>
    </linearGradient>
    <linearGradient id="Gradiente_sem_nome_11" data-name="Gradiente sem nome 11" x1="277" y1="261.5" x2="707.6" y2="261.5" gradientUnits="userSpaceOnUse">
      <stop offset="0" stop-color="#c4d23a"/>
      <stop offset="1" stop-color="#a0b81c"/>
    </linearGradient>
    <linearGradient id="Gradiente_sem_nome_111" data-name="Gradiente sem nome 11" x1="637" y1="297" x2="1100.9" y2="297" xlink:href="#Gradiente_sem_nome_11"/>
    <linearGradient id="Gradiente_sem_nome_161" data-name="Gradiente sem nome 16" x1="1067" y1="159.3" x2="1187.5" y2="442" xlink:href="#Gradiente_sem_nome_16"/>
    <linearGradient id="Gradiente_sem_nome_162" data-name="Gradiente sem nome 16" x1="1303.9" y1="172" x2="1513.7" y2="417.7" xlink:href="#Gradiente_sem_nome_16"/>
    <linearGradient id="Gradiente_sem_nome_163" data-name="Gradiente sem nome 16" x1="1642" y1="126.4" x2="1798.6" y2="377.3" xlink:href="#Gradiente_sem_nome_16"/>
    <linearGradient id="Gradiente_sem_nome_112" data-name="Gradiente sem nome 11" x1="2186.7" y1="258.3" x2="2489.6" y2="258.3" xlink:href="#Gradiente_sem_nome_11"/>
    <linearGradient id="Gradiente_sem_nome_113" data-name="Gradiente sem nome 11" x1="2439.9" y1="283.4" x2="2766.2" y2="283.4" xlink:href="#Gradiente_sem_nome_11"/>
  </defs>
  <g class="st5">
    <g id="Camada_1" class="st9">
      <image id="B2xBet_-_Logo_Original_pdf_xA0_Imagem" width="2195" height="716" transform="translate(15 6) scale(.9)" xlink:href="LOGO_B2XBET_VETOR-1.png"/>
      <image width="400" height="400" transform="translate(-335 1499) scale(5.9)" xlink:href="LOGO_B2XBET_VETOR-2.png"/>
      <image id="Logomarca_Branca_B2XBET_xA0_Imagem" width="1920" height="1080" transform="translate(-17 417.1) scale(1)" xlink:href="LOGO_B2XBET_VETOR-3.png"/>
    </g>
    <g id="Camada_2">
      <g>
        <path class="st8" d="M1757.3,442.7l-14.3.8,31-154,65.1,1.8c24.1.7,45.1-16.4,49.3-40.1l11-62c5.1-28.6-16.8-54.8-45.9-55l-310.9-1.8-.2,1.1-239.4-1.9c-13.5-.1-37.5,7.7-43,20h0c-29-15-63.5-15.1-70.4-15h-49.3c-2.4-18-27.4-31-46.4-31h-216c-11.1,0-21.8,3.5-30.8,9.9l-39.2,28.1-15.3-16.2c-12-12.7-28.4-20.5-45.8-21.8l-10.9-.9s-19.6-24.7-30-32c-32.7-25.9-89.2-40.2-155.3-42.4-86.1-3-156.3,35-180.7,51.4-35.2,23.7-63,45-63,45-8.2-.8-191-1-191-1h0c-31.9,3.2-57.5,27.8-61.9,59.5l-33.4,215.5c-5.6,36.3,22.4,69,59.1,69h148.2c9,24,32,39.9,57.7,39.9l258.3-.9,34.5,1.3c11.5.4,22.9-1.7,33.5-6.3h0s21.2,7,21.2,7c32.3,10.6,67.7,4.1,94.1-17.3l26.7-21.6,15.5,18.6c13,15.5,32.1,24.4,52.3,24.2l214.8-1.5c21.4-.2,40-14.7,45.4-35.5l1-3.8c86,5,133-18,133-18,0,0,11,22,57,19l197-1c-4.6,1.8-13,4-18,8-25.4,20.3-32,37-33,62-.7,0-21,1-29.8,11s-10.1,17.9-9.4,28l1.6,22c.8,10.7,6,20.7,14.4,27.3,6.8,5.4,15.3,8.3,23.8,8.3s4.1-.2,6.1-.5l25.2-4.1c6.1-1,13.4-4.6,18.1-8,8.7,3.4,35,12,72-5,3.8-1.7,7.8-5.4,11-8,31,15,65.8,3.6,79-1l7-4s16,7,42,2l13-3s24,3,45-5c0,0,7,4,34-1s32-16,35-32l-9.6-94.5h0c-1.2-20.7-19.7-36-40.2-33.4ZM434,233.5s31.3-17.9,52-29c14.3-7.7,25.1-11.7,39.1-13.6,3.9-.5,29.6-1.2,31.9-.4-1.8,1.1-95.1,30.6-123,43ZM693,355.5c-14-10-38-9-38-9h-56c102-38,130-87,130-87,2.9,4,26.2,35.3,44,39s36-2,36-2c3,21,4.9,25.3,10.8,32.6l47.2,58.4-3,2-49-62c-16-21-39.1-19.9-40-20-10-1-20.6.8-31,7l-51,41ZM1542,324.5h0l8-37,59,3-23.7,126.1c-2.7,14.4,1.6,29.3,11.7,39.9h0s-2.7-.2-8,0c-13.2.6-29.2,7.5-39,12l-10.3,7.5s-4.7-3.5-15.7-4.5c0,0,16-4,23-12,0,0,10-8,14-30,2.1-11.4,4.3-21.9,10-46,5-21.3-4-51-29-59Z"/>
        <g>
          <polyline class="st7" points="1524.1 422 1259.7 421.9 1302.5 172.3 1303 169 1554.5 164 1558.5 169 1547.9 231.3 1362.6 230.8 1356.1 268.1 1506.5 263 1510.5 267.7 1500.5 323.1 1347.5 323.1 1341.3 358.7 1530.5 355 1535 359.7 1524.2 421.4 1524.1 422"/>
          <polygon class="st7" points="1573.5 169 1558.5 227 1561.5 232 1669.5 232 1634.5 416 1637 421.3 1707.6 421.2 1740.5 232 1846.5 232 1857.5 169 1854.5 164 1573.5 169"/>
          <path class="st7" d="M369,230c1-10,6-47-49-61-6-1.5-22-4-38.7-3.6-.6,0-65.7,0-65.7,0l-112.6-.5-35.5,253.5h172s38-2,61-16,46.3-48.5,51-67c9.5-37.5-22.5-51.5-22.5-51.5,0,0,36.5-19.4,40-54ZM279.9,344.9c-7.9,27.4-31.9,25.1-31.9,25.1h-105l10-60h104c16,0,31,7,22.9,34.9ZM293,242c-7.7,22.1-26.5,21-26.5,21h-105.5l9-50h105c9,0,26,6,18,29Z"/>
          <path class="st10" d="M357,230c1-10,6-47-49-61-6-1.5-22-4-38.7-3.6-.6,0-65.7,0-65.7,0l-108.6-.5-43.5,253.5h176s38-2,61-16,46.3-48.5,51-67c9.5-37.5-22.5-51.5-22.5-51.5,0,0,36.5-19.4,40-54ZM267.9,344.9c-7.9,27.4-31.9,25.1-31.9,25.1h-105l10-60h104c16,0,31,7,22.9,34.9ZM281,242c-7.7,22.1-26.5,21-26.5,21h-105.5l9-50h105c9,0,26,6,18,29Z"/>
          <polygon class="st7" points="854.5 286 1005.5 173.5 894.5 173.5 790 249 721 175 720.5 171.5 752 144 802 199 877 143 1101.5 139.5 1103.5 143.5 916.5 294 1047.5 457.5 1047.5 460.5 815.7 461 766 400 690.9 461 638 461 636.5 457.5 777 344 846 428 967 428 854.5 286"/>
          <path class="st7" d="M383,205.5l-6.5-4-35.5-43s23.2-18.7,57.5-41.8c37.5-25.2,94.7-47.3,155.5-45.2,84.4,2.9,124.8,25.4,144.5,53.2,11,15.6,14.1,29.3,14.5,32.8,5,42-20.3,71.4-30,83-20.4,24.5-42.4,35-74.8,50.5-28,13.4-29,9-110.2,41.5-15,6-32.9,12.8-50,23-21.8,13-37.8,27-48,37l273.5-5,5.5,5-79,68-317-2c.5,0-7.1,0-6.5-4,8.1-50.7,45.9-101.3,115.5-146,53-34,104-50,148-64,46.4-14.8,90-30,90-58,0-45-76.3-52.6-104-48-30,5-53,15-76,28-40.1,22.7-67,39-67,39Z"/>
          <path class="st2" d="M377,201l-42-47s23.2-18.7,57.5-41.8c37.5-25.2,94.7-47.3,155.5-45.2,84.4,2.9,124.8,25.4,144.5,53.2,11,15.6,14.1,29.3,14.5,32.8,5,42-20.3,71.4-30,83-20.4,24.5-42.4,35-74.8,50.5-28,13.4-29,9-110.2,41.5-15,6-32.9,12.8-50,23-21.8,13-37.8,27-48,37h279l-79,68-317-2c5.1-56.1,33.9-101.8,109-150,53-34,104-50,148-64,46.4-14.8,90-30,90-58,0-45-76.3-52.6-104-48-30,5-53,15-76,28-40.1,22.7-67,39-67,39Z"/>
          <polygon class="st12" points="854 286 1004.5 169.5 893.5 169.5 789 245 720 171 715 137 751 140 801 195 876 139 1100.9 139 917.5 287 1047 457 814.7 457 765 396 689.9 457 637 457 776 340 845 424 956.5 421 854 286"/>
          <g>
            <path class="st7" d="M1233.8,285.2s39.8-19.8,39-63.4c-1-55.8-82.1-53.7-82.1-53.7h-100.4l-151.8,120.9,99.6,130s68.4-.5,92.8-.5,33-1.5,33-1.5c76-13.2,92.4-66.9,93.3-91.2,1-27.4-23.3-40.6-23.3-40.6ZM1186.1,340.9c-2.1,10.3-12.2,30.4-32.5,29.9,0,0-105.3,0-105.3,0l10.8-59.3h107s16-2,20.1,14.2c1.3,5.3.9,10.6,0,15.2ZM1199.5,239.5c-2.1,8.6-9,25.4-31.6,25.4h-100.4l8.1-49.7h104.4s14.7-.8,19.1,12.6c1.2,3.8,1.2,7.8.3,11.7Z"/>
            <path class="st1" d="M1232.8,281.1s39.8-19.8,39-63.4c-1-55.8-82.1-53.7-82.1-53.7h-100.2s-152,123-152,123l97.6,127.9s70.4-.5,94.8-.5,33-1.5,33-1.5c76-13.2,92.4-66.9,93.3-91.2,1-27.4-23.3-40.6-23.3-40.6ZM1185.1,336.9c-2.1,10.3-12.2,30.4-32.5,29.9,0,0-105.3,0-105.3,0l10.8-59.3h107s16-2,20.1,14.2c1.3,5.3.9,10.6,0,15.2ZM1198.5,235.5c-2.1,8.6-9,25.4-31.6,25.4h-100.4l8.1-49.7h104.4s14.7-.8,19.1,12.6c1.2,3.8,1.2,7.8.3,11.7Z"/>
          </g>
          <polyline class="st3" points="1520.1 417 1255.7 416.9 1298.5 167.3 1299 164 1554.5 164 1543.9 226.3 1358.6 225.8 1352.1 263.1 1506.5 262.7 1496.5 318.1 1343.5 318.1 1337.3 353.7 1531 354.7 1520.2 416.4 1520.1 417"/>
          <polygon class="st11" points="1570.5 164 1558.5 227 1666.5 227 1634 416.3 1704.6 416.2 1737.5 227 1843.5 227 1854.5 164 1570.5 164"/>
          <path class="st4" d="M1416.4,575.4c5.9-.4,18.8-1.3,24.4-1.7,1.5-.1,2.8,1,3,2.5l2.3,19.6c.2,1.5-.9,2.9-2.4,3.2l-25.2,4.1c-1.7.3-3.2-.9-3.3-2.6l-1.6-22c-.1-1.6,1.1-3,2.7-3Z"/>
          <path class="st6" d="M1506.5,535.5l33-3c-2.1-9.6-3.6-28.3-26-32-18-3-33.3,1.5-42,7-8,5-20,15-20,38s13,52.7,44.5,51.3c0,0,15.7.3,29-6.9,8.9-4.8,15.1-13.4,17.3-23.3.9-4.1.7-8.1.2-11.2,0,0-34.8,2.6-34.9,3.3-.1,1.7.2,12.7-7.1,12.7s-5.3-2-7-4c-4.9-5.8-4-29.1-4-34,0-4.6,3.3-10,9-10s8,12,8,12Z"/>
          <path class="st6" d="M1638,524.6v1.9c-.5-6.9-4.3-28.7-31.5-35.9-17.6-4.7-35.2,1.4-43.7,7.2-7.8,5.4-18.4,16.6-18.3,39.8.2,27.7,15,51,46.6,49,0,0,15.7-.4,28.7-8.1,8.7-5.2,16.1-13.9,17.7-23.9,1-6,3-11,.5-30ZM1605.5,550.5c0,6-3.4,10.2-6,12-5.4,3.6-12.4,2.7-15.9-2.8,0,0,0-.1-.1-.2-.3-.5-.2-.4-.5-.9-2.2-4.1-3.4-9.6-3.7-14.3-.3-4.9-.8-11.3-.8-16.8,0-14,11.1-18.1,18-14,5,3,7.3,9.4,8,16,.6,5,1,14,1,13.5v7.5Z"/>
          <path class="st6" d="M1653.5,577.5l-9-92,48-4,14.4,47.5c.4,1.2,2,1,2.2-.2l4.5-50.3,49-4,11,92-33,3-4.4-48.7c-.2-2-3.1-2-3.3,0l-5.2,50.7-29,2-18.2-51.2c-.4-1.1-2.1-.7-1.9.4l4.2,51.8-29,3Z"/>
        </g>
      </g>
      <g>
        <g>
          <path d="M2789.4,166.6c-4.2-12.1-15.7-20.2-28.5-20.2h-152.4c-6.5,0-12.9,2.1-18,5.9l-35.6,26.4-20.1-22c-5.1-5.6-12.1-9-19.7-9.7l-7.3-.6c-1-1.6-1.9-3.1-3.1-4.7-22.3-31.6-63.9-48.1-127.1-50.3-63.5-2.3-112.3,25.7-130.3,37.8-18.8,12.6-33.3,23.7-40.3,29.1-6.6,5.1-10.7,12.7-11.5,21-.8,8.3,2,16.6,7.6,22.8l25.6,28.6c9.6,10.8,25.6,13.2,37.9,5.8,6.2-3.7,23-13.7,46-26.7,17.4-9.8,31.2-15,47.8-17.7,15.5-2.5,40.2,3,46,8.8-8.4,7.1-36.5,16-47.7,19.6l-1.4.4c-32.4,10.3-72.7,23.1-114.2,49.8-57.2,36.7-85.5,75.1-91.8,124.6-1.1,8.5,1.6,17.1,7.2,23.6,5.7,6.5,13.9,10.3,22.5,10.3l228,1.4h.2c5.7,0,11.1-1.6,15.8-4.5,5,3.5,11,5.5,17.3,5.5h25.6c6.9,0,13.6-2.4,18.9-6.7l34.5-27.8,19.1,23.3c5.7,7.1,14.3,11.2,23.4,11.2h160.9c11.6,0,22-6.5,27.1-16.9,5.1-10.4,3.8-22.6-3.3-31.7l-76.4-97.8,107.6-85.2c10-8,14-21.4,9.7-33.5ZM2513.2,302.9l-38,31.8c-5-3.7-11.2-5.8-17.8-5.8h-99.1c22.5-8.8,34.4-12.7,42.7-15.5,9.2-3.1,15.8-5.3,26.9-10.6,25.3-12.1,45.3-21.7,64.4-44.6,2.5-3,6.3-7.6,10.2-13.4l18.8,20c10.3,10.9,27.3,12.6,39.5,3.8l37.6-27-19.9,15.3h0c-6.4,5-10.6,12.4-11.5,20.5-.9,8,1.5,16.3,6.6,22.5l45.6,55.9h-23l-40.5-49c-5.2-6.2-12.4-10.1-20.5-10.8-8-.7-15.9,1.7-22.1,6.9Z"/>
          <path d="M2724.6,448h-160.9c-14.1,0-27.2-6.3-36.1-17.2l-8.8-10.7-21.9,17.6c-8.2,6.6-18.6,10.3-29.2,10.3h-25.6c-6.2,0-12.2-1.2-17.8-3.5-4.9,1.7-10.1,2.6-15.3,2.6l-228.3-1.4c-13.3,0-26-5.9-34.7-15.9-8.7-10-12.8-23.3-11.1-36.4,6.9-54.7,37.5-96.7,99.1-136.3,1-.7,2.1-1.3,3.1-1.9-7.8-2.4-15.1-7-20.8-13.4l-25.6-28.6c-8.6-9.6-12.8-22.4-11.6-35.2,1.1-12.7,7.6-24.6,17.7-32.4,8.9-6.9,23.3-17.7,41.2-29.7,19.4-13,71.9-43,140-40.6,67.6,2.3,113.1,20.5,138.8,55.7,11.5,1.1,22.1,6.4,29.9,14.9l10.2,11.2,23.8-17.7c7.8-5.9,17.7-9.2,27.7-9.2h152.4c19.7,0,37.4,12.5,43.9,31.2,6.5,18.7.5,39.4-15,51.7l-94.9,75.1,66.4,85c11,14.1,13,32.9,5.1,49-7.8,16.1-23.9,26.1-41.8,26.1ZM2523.6,374.3l29.4,35.9c2.7,3.3,6.6,5.2,10.8,5.2h160.9c5.4,0,10-2.9,12.4-7.7,2.4-4.9,1.8-10.3-1.5-14.5l-86.4-110.6,120.4-95.2c4.6-3.6,6.4-9.8,4.5-15.3-1.9-5.5-7.2-9.3-13-9.3h-152.4c-2.9,0-5.9,1-8.1,2.7l-47.6,35.3-30.1-32.9c-2.3-2.5-5.6-4.1-9.1-4.4l-15.4-1.3-4.3-6.9c-1-1.6-1.7-2.8-2.6-3.9-19.2-27.2-56.6-41.4-114.3-43.4-58.3-2.1-103.9,23.8-120.6,35.1-17.2,11.6-30.9,21.8-39.4,28.4-3,2.3-4.9,5.8-5.2,9.6-.4,3.8.9,7.6,3.5,10.5l25.6,28.6c4.4,4.9,11.7,6.1,17.3,2.7,6.2-3.7,23.2-13.8,46.3-26.9,19.2-10.8,34.5-16.5,53.1-19.6,18.3-3,49.2,2.3,60.2,13.4l12.6,12.6-13.6,11.5c-7.8,6.5-23.2,13.1-53.2,22.7l-1.4.4c-31.4,10-70.6,22.5-110.3,47.9-52.7,33.8-78.8,68.7-84.4,112.9-.5,3.9.7,7.8,3.3,10.8,2.6,3,6.4,4.7,10.4,4.7l227.9,1.4c2.7,0,5.2-.7,7.4-2.1l9.2-5.7,8.8,6.2c2.3,1.6,5.1,2.5,7.9,2.5h25.6c3.1,0,6.2-1.1,8.7-3.1l47.1-38ZM2395.4,213.3h0ZM2653.8,372.2h-65.2l-45.4-55c-2.4-2.9-5.6-4.6-9.4-4.9-3.7-.3-7.3.8-10.1,3.1h0s-47.8,40-47.8,40l-10.3-7.5c-2.4-1.7-5.2-2.6-8.1-2.6h-186.1l81-31.6c23-9,35.3-13.1,43.5-15.8,8.9-3,14.8-4.9,25-9.8,24.4-11.7,42.1-20.1,58.9-40.3,2-2.3,5.6-6.7,9.2-12l11.5-16.9,32.8,34.9c4.7,5,12.5,5.7,18.1,1.7l37.6-27,19.5,26.2-19.9,15.3c-2.9,2.3-4.9,5.7-5.3,9.3-.4,3.6.7,7.5,3,10.3l67.4,82.6ZM2445.4,312.6h12.1c5.4,0,10.6.9,15.6,2.7l29.7-24.8c4.2-3.5,8.9-6.2,13.9-8-2.6-1.8-5-3.8-7.2-6.2l-5.7-6.1c-18.2,21.3-37.1,32.1-58.3,42.5Z"/>
        </g>
        <g>
          <polygon class="st7" points="2593.3 278.4 2699.1 196.5 2621.1 196.5 2547.6 249.6 2499 197.5 2498.7 195.1 2520.8 175.7 2556 214.4 2608.8 175 2766.7 172.6 2768.1 175.4 2636.2 279.1 2728.7 396.3 2728.7 398.4 2565.6 398.7 2530.7 355.8 2477.8 398.7 2440.6 398.7 2439.6 396.3 2538.4 316.4 2586.9 375.5 2672.1 375.5 2593.3 278.4"/>
          <path class="st7" d="M2261.3,219l-4.6-2.8-25-30.2s16.3-13.2,40.4-29.4c26.4-17.8,66.6-33.3,109.4-31.8,59.3,2,87.8,17.9,101.6,37.4,7.7,11,9.9,20.6,10.2,23.1,3.5,29.5-14.3,50.2-21.1,58.4-14.4,17.2-29.8,24.6-52.6,35.5-19.7,9.4-20.4,6.4-77.5,29.2-10.6,4.2-23.1,9-35.2,16.2-15.4,9.1-26.6,19-33.8,26l192.4-3.5,3.9,3.5-55.6,47.8-223-1.4c.4,0-5,0-4.6-2.8,5.7-35.6,32.3-71.3,81.2-102.7,37.3-23.9,73.2-35.2,104.1-45,32.6-10.4,63.3-21.1,63.3-40.8,0-31.7-53.6-37-73.2-33.8-21.1,3.5-37.3,10.6-53.5,19.7-28.2,16-47.1,27.4-47.1,27.4Z"/>
          <path class="st0" d="M2257,215.8l-29.5-33.1s16.3-13.2,40.4-29.4c26.4-17.8,66.6-33.3,109.4-31.8,59.3,2,87.8,17.9,101.6,37.4,7.7,11,9.9,20.6,10.2,23.1,3.5,29.5-14.3,50.2-21.1,58.4-14.4,17.2-29.8,24.6-52.6,35.5-19.7,9.4-20.4,6.4-77.5,29.2-10.6,4.2-23.1,9-35.2,16.2-15.4,9.1-26.6,19-33.8,26h196.3l-55.6,47.8-223-1.4c3.6-39.5,23.8-71.6,76.7-105.5,37.3-23.9,73.2-35.2,104.1-45,32.6-10.4,63.3-21.1,63.3-40.8,0-31.7-53.6-37-73.2-33.8-21.1,3.5-37.3,10.6-53.5,19.7-28.2,16-47.1,27.4-47.1,27.4Z"/>
          <polygon class="st13" points="2592.6 275.6 2698.4 193.7 2620.4 193.7 2546.9 246.8 2498.3 194.7 2494.8 170.8 2520.1 172.9 2555.3 211.6 2608 172.2 2766.2 172.2 2635.5 276.3 2728.3 395.9 2564.9 395.9 2530 353 2477.1 395.9 2439.9 395.9 2537.7 313.6 2586.2 372.7 2671.4 372.7 2592.6 275.6"/>
        </g>
      </g>
    </g>
  </g>
</svg>