<svg width="244" height="291" viewBox="0 0 244 291" fill="none" xmlns="http://www.w3.org/2000/svg">
<path d="M85.0691 291C77.7897 291 71.5603 288.412 66.3809 283.236C61.2015 278.059 58.6074 271.829 58.5986 264.545V216.432H85.0691V224.864H217.422V66.1364H85.0691V81H58.5986V26.4545C58.5986 19.1795 61.1927 12.9539 66.3809 7.77764C71.5691 2.60136 77.7986 0.00881818 85.0691 0H217.422C224.701 0 230.935 2.59255 236.124 7.77764C241.312 12.9627 243.901 19.1884 243.893 26.4545V264.545C243.893 271.82 241.303 278.05 236.124 283.236C230.944 288.421 224.71 291.009 217.422 291H85.0691Z" fill="#DFFF00"/>
<path d="M119.376 187.426L152.143 187.416L152.171 93.7962L58.5513 93.8245L58.5414 126.591L95.404 127.165L0 222.569L23.3978 245.967L118.802 150.563L119.376 187.426Z" fill="#DFFF00"/>
</svg>
