<svg width="236" height="309" viewBox="0 0 236 309" fill="none" xmlns="http://www.w3.org/2000/svg">
<path d="M124.634 2.63604C121.119 -0.87868 115.42 -0.87868 111.906 2.63604L54.6299 59.9117C51.1152 63.4264 51.1152 69.1249 54.6299 72.6396C58.1446 76.1543 63.8431 76.1543 67.3578 72.6396L118.27 21.7279L169.181 72.6396C172.696 76.1543 178.394 76.1543 181.909 72.6396C185.424 69.1249 185.424 63.4264 181.909 59.9117L124.634 2.63604ZM109.27 208.039C109.27 213.009 113.299 217.039 118.27 217.039C123.24 217.039 127.27 213.009 127.27 208.039L109.27 208.039ZM109.27 9L109.27 208.039L127.27 208.039L127.27 9L109.27 9Z" fill="#DFFF00"/>
<path d="M85.0961 94.0957H49.0384C21.9553 94.0957 0 116.051 0 143.134V259.961C0 287.045 21.9553 309 49.0384 309H186.058C213.141 309 235.096 287.045 235.096 259.961V143.134C235.096 116.051 213.141 94.0957 186.058 94.0957H151.442V115.73H186.058C201.192 115.73 213.461 127.999 213.461 143.134V259.961C213.461 275.096 201.192 287.365 186.058 287.365H49.0384C33.9037 287.365 21.6346 275.096 21.6346 259.961V143.134C21.6346 127.999 33.9037 115.73 49.0384 115.73H85.0961V94.0957Z" fill="#DFFF00"/>
<path d="M85.0961 94.0957H49.0384C21.9553 94.0957 0 116.051 0 143.134V259.961C0 287.045 21.9553 309 49.0384 309H186.058C213.141 309 235.096 287.045 235.096 259.961V143.134C235.096 116.051 213.141 94.0957 186.058 94.0957H151.442V115.73H186.058C201.192 115.73 213.461 127.999 213.461 143.134V259.961C213.461 275.096 201.192 287.365 186.058 287.365H49.0384C33.9037 287.365 21.6346 275.096 21.6346 259.961V143.134C21.6346 127.999 33.9037 115.73 49.0384 115.73H85.0961V94.0957Z" stroke="#DFFF00"/>
</svg>
