<svg width="1130" height="465" viewBox="0 0 1130 465" fill="none" xmlns="http://www.w3.org/2000/svg">
<path d="M0 195.5C0 87.5283 87.5283 0 195.5 0H934.5C1042.47 0 1130 87.5283 1130 195.5C1130 303.472 1042.47 391 934.5 391H195.5C87.5284 391 0 303.472 0 195.5Z" fill="#DFFF00"/>
<path d="M120.648 160.41V144.727H203.044V160.41H171.124V248H152.567V160.41H120.648ZM240.675 249.513C233.111 249.513 226.555 247.849 221.008 244.521C215.461 241.192 211.158 236.536 208.099 230.553C205.074 224.569 203.561 217.576 203.561 209.575C203.561 201.574 205.074 194.565 208.099 188.548C211.158 182.53 215.461 177.857 221.008 174.529C226.555 171.201 233.111 169.537 240.675 169.537C248.238 169.537 254.794 171.201 260.341 174.529C265.888 177.857 270.174 182.53 273.199 188.548C276.259 194.565 277.788 201.574 277.788 209.575C277.788 217.576 276.259 224.569 273.199 230.553C270.174 236.536 265.888 241.192 260.341 244.521C254.794 247.849 248.238 249.513 240.675 249.513ZM240.775 234.889C244.877 234.889 248.306 233.763 251.062 231.511C253.819 229.225 255.87 226.165 257.214 222.333C258.593 218.501 259.282 214.231 259.282 209.525C259.282 204.785 258.593 200.499 257.214 196.666C255.87 192.8 253.819 189.724 251.062 187.438C248.306 185.152 244.877 184.009 240.775 184.009C236.573 184.009 233.077 185.152 230.287 187.438C227.53 189.724 225.463 192.8 224.084 196.666C222.74 200.499 222.067 204.785 222.067 209.525C222.067 214.231 222.74 218.501 224.084 222.333C225.463 226.165 227.53 229.225 230.287 231.511C233.077 233.763 236.573 234.889 240.775 234.889ZM344.968 277.045V235.797H344.212C343.271 237.679 341.909 239.68 340.127 241.798C338.346 243.882 335.993 245.664 333.068 247.143C330.143 248.622 326.462 249.362 322.025 249.362C315.94 249.362 310.494 247.798 305.686 244.672C300.879 241.545 297.08 237.007 294.29 231.057C291.5 225.107 290.105 217.879 290.105 209.374C290.105 200.768 291.517 193.506 294.341 187.589C297.198 181.639 301.047 177.151 305.888 174.126C310.729 171.067 316.125 169.537 322.075 169.537C326.613 169.537 330.345 170.31 333.27 171.857C336.194 173.369 338.514 175.201 340.228 177.353C341.943 179.471 343.271 181.471 344.212 183.354H345.321V170.545H363.273V277.045H344.968ZM327.118 234.385C330.984 234.385 334.278 233.343 337.001 231.259C339.724 229.141 341.792 226.199 343.203 222.434C344.615 218.669 345.321 214.282 345.321 209.273C345.321 204.264 344.615 199.91 343.203 196.212C341.825 192.514 339.775 189.64 337.051 187.589C334.362 185.539 331.051 184.513 327.118 184.513C323.05 184.513 319.654 185.572 316.931 187.69C314.208 189.808 312.158 192.733 310.779 196.464C309.401 200.196 308.712 204.465 308.712 209.273C308.712 214.114 309.401 218.433 310.779 222.232C312.191 225.997 314.259 228.973 316.982 231.158C319.739 233.309 323.117 234.385 327.118 234.385ZM431.399 215.425V170.545H449.653V248H431.953V234.234H431.147C429.399 238.57 426.524 242.117 422.524 244.874C418.557 247.63 413.666 249.009 407.85 249.009C402.774 249.009 398.286 247.882 394.386 245.63C390.52 243.344 387.494 240.033 385.309 235.696C383.124 231.326 382.032 226.048 382.032 219.862V170.545H400.286V217.038C400.286 221.946 401.631 225.846 404.32 228.737C407.009 231.628 410.539 233.074 414.909 233.074C417.599 233.074 420.204 232.418 422.725 231.107C425.247 229.796 427.314 227.846 428.928 225.258C430.575 222.636 431.399 219.358 431.399 215.425ZM502.714 249.513C494.948 249.513 488.242 247.899 482.594 244.672C476.98 241.411 472.66 236.805 469.634 230.855C466.609 224.871 465.096 217.828 465.096 209.727C465.096 201.759 466.609 194.767 469.634 188.749C472.694 182.698 476.963 177.992 482.443 174.63C487.922 171.235 494.36 169.537 501.756 169.537C506.53 169.537 511.034 170.31 515.27 171.857C519.539 173.369 523.305 175.723 526.566 178.916C529.86 182.11 532.449 186.178 534.331 191.119C536.214 196.027 537.155 201.877 537.155 208.668V214.265H473.669V201.961H519.657C519.624 198.465 518.867 195.355 517.388 192.632C515.909 189.875 513.841 187.707 511.186 186.127C508.563 184.547 505.504 183.757 502.008 183.757C498.276 183.757 494.999 184.665 492.175 186.48C489.351 188.262 487.149 190.615 485.569 193.54C484.023 196.431 483.233 199.608 483.199 203.07V213.811C483.199 218.316 484.023 222.182 485.67 225.409C487.317 228.603 489.62 231.057 492.578 232.771C495.537 234.452 498.999 235.293 502.966 235.293C505.622 235.293 508.026 234.923 510.177 234.183C512.329 233.41 514.194 232.284 515.774 230.805C517.354 229.326 518.548 227.493 519.355 225.308L536.399 227.224C535.323 231.729 533.272 235.662 530.247 239.024C527.255 242.352 523.422 244.941 518.749 246.79C514.077 248.605 508.731 249.513 502.714 249.513ZM622.11 249.513C614.345 249.513 607.638 247.899 601.99 244.672C596.376 241.411 592.056 236.805 589.031 230.855C586.005 224.871 584.493 217.828 584.493 209.727C584.493 201.759 586.005 194.767 589.031 188.749C592.09 182.698 596.359 177.992 601.839 174.63C607.319 171.235 613.757 169.537 621.152 169.537C625.926 169.537 630.431 170.31 634.667 171.857C638.936 173.369 642.701 175.723 645.962 178.916C649.257 182.11 651.845 186.178 653.728 191.119C655.61 196.027 656.551 201.877 656.551 208.668V214.265H593.065V201.961H639.054C639.02 198.465 638.264 195.355 636.784 192.632C635.305 189.875 633.238 187.707 630.582 186.127C627.96 184.547 624.901 183.757 621.404 183.757C617.673 183.757 614.395 184.665 611.571 186.48C608.748 188.262 606.546 190.615 604.966 193.54C603.419 196.431 602.629 199.608 602.596 203.07V213.811C602.596 218.316 603.419 222.182 605.066 225.409C606.714 228.603 609.016 231.057 611.975 232.771C614.933 234.452 618.396 235.293 622.363 235.293C625.018 235.293 627.422 234.923 629.574 234.183C631.725 233.41 633.591 232.284 635.171 230.805C636.751 229.326 637.944 227.493 638.751 225.308L655.795 227.224C654.719 231.729 652.669 235.662 649.643 239.024C646.651 242.352 642.819 244.941 638.146 246.79C633.473 248.605 628.128 249.513 622.11 249.513ZM671.994 248V170.545H689.442V183.707H690.35C691.963 179.269 694.636 175.807 698.367 173.319C702.099 170.798 706.553 169.537 711.73 169.537C716.975 169.537 721.395 170.814 724.992 173.369C728.623 175.891 731.178 179.336 732.657 183.707H733.464C735.178 179.404 738.07 175.975 742.137 173.42C746.239 170.831 751.096 169.537 756.71 169.537C763.837 169.537 769.653 171.789 774.158 176.294C778.663 180.799 780.915 187.371 780.915 196.011V248H762.61V198.835C762.61 194.027 761.333 190.514 758.778 188.295C756.223 186.043 753.097 184.917 749.399 184.917C744.995 184.917 741.549 186.295 739.061 189.052C736.607 191.775 735.38 195.321 735.38 199.692V248H717.479V198.078C717.479 194.078 716.269 190.884 713.848 188.497C711.461 186.11 708.335 184.917 704.469 184.917C701.847 184.917 699.46 185.589 697.308 186.934C695.157 188.245 693.442 190.111 692.165 192.531C690.887 194.918 690.249 197.708 690.249 200.902V248H671.994Z" fill="black"/>
<path d="M947.782 99.7574C945.439 97.4142 941.64 97.4142 939.296 99.7574L901.113 137.941C898.77 140.284 898.77 144.083 901.113 146.426C903.456 148.77 907.255 148.77 909.598 146.426L943.539 112.485L977.48 146.426C979.823 148.77 983.622 148.77 985.965 146.426C988.309 144.083 988.309 140.284 985.965 137.941L947.782 99.7574ZM937.539 226.077C937.539 229.391 940.225 232.077 943.539 232.077C946.853 232.077 949.539 229.391 949.539 226.077L937.539 226.077ZM937.539 104L937.539 226.077L949.539 226.077L949.539 104L937.539 104Z" fill="black"/>
<path d="M923.192 156.191H901.077C884.466 156.191 871 169.657 871 186.268V257.922C871 274.533 884.466 287.999 901.077 287.999H985.115C1001.73 287.999 1015.19 274.533 1015.19 257.922V186.268C1015.19 169.657 1001.73 156.191 985.115 156.191H963.885V169.461H985.115C994.398 169.461 1001.92 176.986 1001.92 186.268V257.922C1001.92 267.205 994.398 274.73 985.115 274.73H901.077C891.794 274.73 884.269 267.205 884.269 257.922V186.268C884.269 176.986 891.794 169.461 901.077 169.461H923.192V156.191Z" fill="black"/>
<path d="M923.192 156.191H901.077C884.466 156.191 871 169.657 871 186.268V257.922C871 274.533 884.466 287.999 901.077 287.999H985.115C1001.73 287.999 1015.19 274.533 1015.19 257.922V186.268C1015.19 169.657 1001.73 156.191 985.115 156.191H963.885V169.461H985.115C994.398 169.461 1001.92 176.986 1001.92 186.268V257.922C1001.92 267.205 994.398 274.73 985.115 274.73H901.077C891.794 274.73 884.269 267.205 884.269 257.922V186.268C884.269 176.986 891.794 169.461 901.077 169.461H923.192V156.191Z" stroke="black"/>
<path d="M565.5 465L643.875 390H487.125L565.5 465Z" fill="#DFFF00"/>
</svg>
