<svg width="1130" height="461" viewBox="0 0 1130 461" fill="none" xmlns="http://www.w3.org/2000/svg">
<path d="M0 265.5C0 157.528 87.5283 70 195.5 70H934.5C1042.47 70 1130 157.528 1130 265.5C1130 373.472 1042.47 461 934.5 461H195.5C87.5284 461 0 373.472 0 265.5Z" fill="#DFFF00"/>
<path d="M155.648 230.41V214.727H238.044V230.41H206.124V318H187.567V230.41H155.648ZM275.675 319.513C268.111 319.513 261.555 317.849 256.008 314.521C250.461 311.192 246.158 306.536 243.099 300.553C240.074 294.569 238.561 287.576 238.561 279.575C238.561 271.574 240.074 264.565 243.099 258.548C246.158 252.53 250.461 247.857 256.008 244.529C261.555 241.201 268.111 239.537 275.675 239.537C283.238 239.537 289.794 241.201 295.341 244.529C300.888 247.857 305.174 252.53 308.199 258.548C311.259 264.565 312.788 271.574 312.788 279.575C312.788 287.576 311.259 294.569 308.199 300.553C305.174 306.536 300.888 311.192 295.341 314.521C289.794 317.849 283.238 319.513 275.675 319.513ZM275.775 304.889C279.877 304.889 283.306 303.763 286.062 301.511C288.819 299.225 290.87 296.165 292.214 292.333C293.593 288.501 294.282 284.231 294.282 279.525C294.282 274.785 293.593 270.499 292.214 266.666C290.87 262.8 288.819 259.724 286.062 257.438C283.306 255.152 279.877 254.009 275.775 254.009C271.573 254.009 268.077 255.152 265.287 257.438C262.53 259.724 260.463 262.8 259.084 266.666C257.74 270.499 257.067 274.785 257.067 279.525C257.067 284.231 257.74 288.501 259.084 292.333C260.463 296.165 262.53 299.225 265.287 301.511C268.077 303.763 271.573 304.889 275.775 304.889ZM379.968 347.045V305.797H379.212C378.271 307.679 376.909 309.68 375.127 311.798C373.346 313.882 370.993 315.664 368.068 317.143C365.143 318.622 361.462 319.362 357.025 319.362C350.94 319.362 345.494 317.798 340.686 314.672C335.879 311.545 332.08 307.007 329.29 301.057C326.5 295.107 325.105 287.879 325.105 279.374C325.105 270.768 326.517 263.506 329.341 257.589C332.198 251.639 336.047 247.151 340.888 244.126C345.729 241.067 351.125 239.537 357.075 239.537C361.613 239.537 365.345 240.31 368.27 241.857C371.194 243.369 373.514 245.201 375.228 247.353C376.943 249.471 378.271 251.471 379.212 253.354H380.321V240.545H398.273V347.045H379.968ZM362.118 304.385C365.984 304.385 369.278 303.343 372.001 301.259C374.724 299.141 376.792 296.199 378.203 292.434C379.615 288.669 380.321 284.282 380.321 279.273C380.321 274.264 379.615 269.91 378.203 266.212C376.825 262.514 374.775 259.64 372.051 257.589C369.362 255.539 366.051 254.513 362.118 254.513C358.05 254.513 354.654 255.572 351.931 257.69C349.208 259.808 347.158 262.733 345.779 266.464C344.401 270.196 343.712 274.465 343.712 279.273C343.712 284.114 344.401 288.433 345.779 292.232C347.191 295.997 349.259 298.973 351.982 301.158C354.739 303.309 358.117 304.385 362.118 304.385ZM466.399 285.425V240.545H484.653V318H466.953V304.234H466.147C464.399 308.57 461.524 312.117 457.524 314.874C453.557 317.63 448.666 319.009 442.85 319.009C437.774 319.009 433.286 317.882 429.386 315.63C425.52 313.344 422.494 310.033 420.309 305.696C418.124 301.326 417.032 296.048 417.032 289.862V240.545H435.286V287.038C435.286 291.946 436.631 295.846 439.32 298.737C442.009 301.628 445.539 303.074 449.909 303.074C452.599 303.074 455.204 302.418 457.725 301.107C460.247 299.796 462.314 297.846 463.928 295.258C465.575 292.636 466.399 289.358 466.399 285.425ZM537.714 319.513C529.948 319.513 523.242 317.899 517.594 314.672C511.98 311.411 507.66 306.805 504.634 300.855C501.609 294.871 500.096 287.828 500.096 279.727C500.096 271.759 501.609 264.767 504.634 258.749C507.694 252.698 511.963 247.992 517.443 244.63C522.922 241.235 529.36 239.537 536.756 239.537C541.53 239.537 546.034 240.31 550.27 241.857C554.539 243.369 558.305 245.723 561.566 248.916C564.86 252.11 567.449 256.178 569.331 261.119C571.214 266.027 572.155 271.877 572.155 278.668V284.265H508.669V271.961H554.657C554.624 268.465 553.867 265.355 552.388 262.632C550.909 259.875 548.841 257.707 546.186 256.127C543.563 254.547 540.504 253.757 537.008 253.757C533.276 253.757 529.999 254.665 527.175 256.48C524.351 258.262 522.149 260.615 520.569 263.54C519.023 266.431 518.233 269.608 518.199 273.07V283.811C518.199 288.316 519.023 292.182 520.67 295.409C522.317 298.603 524.62 301.057 527.578 302.771C530.537 304.452 533.999 305.293 537.966 305.293C540.622 305.293 543.026 304.923 545.177 304.183C547.329 303.41 549.194 302.284 550.774 300.805C552.354 299.326 553.548 297.493 554.355 295.308L571.399 297.224C570.323 301.729 568.272 305.662 565.247 309.024C562.255 312.352 558.422 314.941 553.749 316.79C549.077 318.605 543.731 319.513 537.714 319.513ZM657.11 319.513C649.345 319.513 642.638 317.899 636.99 314.672C631.376 311.411 627.056 306.805 624.031 300.855C621.005 294.871 619.493 287.828 619.493 279.727C619.493 271.759 621.005 264.767 624.031 258.749C627.09 252.698 631.359 247.992 636.839 244.63C642.319 241.235 648.757 239.537 656.152 239.537C660.926 239.537 665.431 240.31 669.667 241.857C673.936 243.369 677.701 245.723 680.962 248.916C684.257 252.11 686.845 256.178 688.728 261.119C690.61 266.027 691.551 271.877 691.551 278.668V284.265H628.065V271.961H674.054C674.02 268.465 673.264 265.355 671.784 262.632C670.305 259.875 668.238 257.707 665.582 256.127C662.96 254.547 659.901 253.757 656.404 253.757C652.673 253.757 649.395 254.665 646.571 256.48C643.748 258.262 641.546 260.615 639.966 263.54C638.419 266.431 637.629 269.608 637.596 273.07V283.811C637.596 288.316 638.419 292.182 640.066 295.409C641.714 298.603 644.016 301.057 646.975 302.771C649.933 304.452 653.396 305.293 657.363 305.293C660.018 305.293 662.422 304.923 664.574 304.183C666.725 303.41 668.591 302.284 670.171 300.805C671.751 299.326 672.944 297.493 673.751 295.308L690.795 297.224C689.719 301.729 687.669 305.662 684.643 309.024C681.651 312.352 677.819 314.941 673.146 316.79C668.473 318.605 663.128 319.513 657.11 319.513ZM706.994 318V240.545H724.442V253.707H725.35C726.963 249.269 729.636 245.807 733.367 243.319C737.099 240.798 741.553 239.537 746.73 239.537C751.975 239.537 756.395 240.814 759.992 243.369C763.623 245.891 766.178 249.336 767.657 253.707H768.464C770.178 249.404 773.07 245.975 777.137 243.42C781.239 240.831 786.096 239.537 791.71 239.537C798.837 239.537 804.653 241.789 809.158 246.294C813.663 250.799 815.915 257.371 815.915 266.011V318H797.61V268.835C797.61 264.027 796.333 260.514 793.778 258.295C791.223 256.043 788.097 254.917 784.399 254.917C779.995 254.917 776.549 256.295 774.061 259.052C771.607 261.775 770.38 265.321 770.38 269.692V318H752.479V268.078C752.479 264.078 751.269 260.884 748.848 258.497C746.461 256.11 743.335 254.917 739.469 254.917C736.847 254.917 734.46 255.589 732.308 256.934C730.157 258.245 728.442 260.111 727.165 262.531C725.887 264.918 725.249 267.708 725.249 270.902V318H706.994Z" fill="black"/>
<path d="M895.5 0L973.875 75H817.125L895.5 0Z" fill="#DFFF00"/>
<path d="M962.507 257.878C965.771 257.878 968.963 258.855 971.677 260.685C974.392 262.516 976.508 265.118 977.757 268.162C979.006 271.206 979.333 274.556 978.696 277.787C978.059 281.019 976.487 283.987 974.179 286.317C971.87 288.647 968.929 290.234 965.727 290.877C962.525 291.52 959.206 291.19 956.19 289.929C953.174 288.668 950.596 286.532 948.782 283.793C946.968 281.053 946 277.832 946 274.537C946 270.119 947.739 265.881 950.835 262.757C953.93 259.633 958.129 257.878 962.507 257.878ZM946 345.34C946 348.635 946.968 351.856 948.782 354.596C950.596 357.336 953.174 359.471 956.19 360.732C959.206 361.993 962.525 362.323 965.727 361.68C968.929 361.037 971.87 359.45 974.179 357.121C976.487 354.791 978.059 351.822 978.696 348.591C979.333 345.359 979.006 342.009 977.757 338.965C976.508 335.921 974.392 333.319 971.677 331.489C968.963 329.658 965.771 328.681 962.507 328.681C958.129 328.681 953.93 330.436 950.835 333.56C947.739 336.685 946 340.922 946 345.34ZM946 203.734C946 207.029 946.968 210.25 948.782 212.99C950.596 215.729 953.174 217.865 956.19 219.126C959.206 220.386 962.525 220.716 965.727 220.074C968.929 219.431 971.87 217.844 974.179 215.514C976.487 213.184 978.059 210.216 978.696 206.984C979.333 203.753 979.006 200.403 977.757 197.359C976.508 194.315 974.392 191.713 971.677 189.882C968.963 188.052 965.771 187.075 962.507 187.075C958.129 187.075 953.93 188.83 950.835 191.954C947.739 195.078 946 199.316 946 203.734Z" fill="black"/>
</svg>
